<svg height="512" viewBox="0 0 64 64" width="512" xmlns="http://www.w3.org/2000/svg"><g id="Fill_Outline" data-name="Fill Outline"><path d="m3 3h58v58h-58z" fill="#aae1f9"/><path d="m11 25v-22h-8v58h58v-8h-22a28 28 0 0 1 -28-28z" fill="#57b7eb"/><path d="m3 3h58v8h-58z" fill="#c4f236"/><path d="m3 3h16v8h-16z" fill="#f89c8d"/><path d="m3 3h8v8h-8z" fill="#f8664f"/><path d="m21 5h38v4h-38z" fill="#a1d51c"/><path d="m7 15h28v20h-28z" fill="#f9e109"/><path d="m22 25-5 10h10z" fill="#a1d51c"/><path d="m16 23-6 12h12z" fill="#c4f236"/><circle cx="29" cy="21" fill="#f8664f" r="2"/><path d="m11 25v-10h-4v20h5.85a27.92 27.92 0 0 1 -1.85-10z" fill="#fcbc04"/><path d="m10 35h2.85a28.14 28.14 0 0 1 -1.09-3.52z" fill="#a1d51c"/><path d="m44 20.12h6v22h-6z" fill="#c4f236" transform="matrix(.866 .5 -.5 .866 21.86 -19.33)"/><path d="m44.1 42.15-5.2-3-.4 6.7z" fill="#fcbc04"/><path d="m54 16a3 3 0 0 1 3 3v3a0 0 0 0 1 0 0h-6a0 0 0 0 1 0 0v-3a3 3 0 0 1 3-3z" fill="#f9e109" transform="matrix(.866 .5 -.5 .866 16.73 -24.45)"/><path d="m52.5 21.6-8.5 14.72a3 3 0 0 1 -4.1 1.1l-1 1.73 5.2 3 11-19z" fill="#a1d51c"/><path d="m55.5 16.4-3 5.2 2.6 1.5 1.5-2.6a3 3 0 0 0 -1.1-4.1z" fill="#fcbc04"/><g fill="#39519d"><circle cx="7" cy="7" r="1"/><circle cx="11" cy="7" r="1"/><circle cx="15" cy="7" r="1"/><path d="m24 6a1 1 0 0 0 0 2h9a1 1 0 0 0 0-2z"/><path d="m39 6a1 1 0 0 0 0 2h15a1 1 0 0 0 0-2z"/><path d="m61 36a1 1 0 0 0 -1 1v23h-56v-36a1 1 0 0 0 -2 0v37a1 1 0 0 0 1 1h58a1 1 0 0 0 1-1v-24a1 1 0 0 0 -1-1z"/><path d="m61 2h-58a1 1 0 0 0 -1 1v17a1 1 0 0 0 2 0v-8h53a1 1 0 0 0 0-2h-37v-6h40v29a1 1 0 0 0 2 0v-30a1 1 0 0 0 -1-1zm-43 8h-14v-6h14z"/><path d="m35 26a1 1 0 0 0 1-1v-10a1 1 0 0 0 -1-1h-28a1 1 0 0 0 -1 1v20a1 1 0 0 0 1 1h28a1 1 0 0 0 1-1v-6a1 1 0 0 0 -2 0v5h-6.38l-4.73-9.45a1 1 0 0 0 -1.78 0l-1.61 3.21-2.61-5.21a1 1 0 0 0 -1.78 0l-5.73 11.45h-1.38v-18h26v9a1 1 0 0 0 1 1zm-13 1.24 3.38 6.76h-2.76l-2-4zm-6-2 4.38 8.76h-8.76z"/><path d="m26 21a3 3 0 1 0 3-3 3 3 0 0 0 -3 3zm4 0a1 1 0 1 1 -1-1 1 1 0 0 1 1 1z"/><path d="m35 39h-14a1 1 0 0 0 0 2h14a1 1 0 0 0 0-2z"/><path d="m7 46h28a1 1 0 0 0 0-2h-28a1 1 0 0 0 0 2z"/><path d="m35 49h-10a1 1 0 0 0 0 2h10a1 1 0 0 0 0-2z"/><path d="m7 51h14a1 1 0 0 0 0-2h-14a1 1 0 0 0 0 2z"/><path d="m7 56h28a1 1 0 0 0 0-2h-28a1 1 0 0 0 0 2z"/><path d="m37.5 45.79a1 1 0 0 0 1 1.06 1 1 0 0 0 .55-.17l5.6-3.68a1 1 0 0 0 .21-.21v-.06l4-6.93a1 1 0 0 0 -.36-1.36 1 1 0 0 0 -1.37.36l-3.5 6.07-3.46-2 10-17.33 3.46 2-4.5 7.8a1 1 0 0 0 .37 1.37 1 1 0 0 0 1.5-.45l5-8.66 1.5-2.6a4 4 0 0 0 -6.92-4l-1.58 2.6-11 19a0 0 0 0 0 0 0 .86.86 0 0 0 -.07.21 1 1 0 0 0 -.05.18s0 0 0 0zm17.5-28.52a2 2 0 0 1 .73 2.73l-1 1.73-3.46-2 1-1.73a2 2 0 0 1 2.73-.73zm-12.8 24.94-2.58 1.7.18-3.08z"/><path d="m58 50a1 1 0 0 0 -1-1h-18a1 1 0 0 0 0 2h18a1 1 0 0 0 1-1z"/><path d="m47 54a1 1 0 0 0 0 2h6a1 1 0 0 0 0-2z"/><path d="m39 54a1 1 0 0 0 0 2h4a1 1 0 0 0 0-2z"/></g></g></svg>