<svg height="512" viewBox="0 0 64 64" width="512" xmlns="http://www.w3.org/2000/svg"><g id="Fill_Outline" data-name="Fill Outline"><rect fill="#aae1f9" height="42" rx="2" width="58" x="3" y="7"/><path d="m13 23v-16h-8a2 2 0 0 0 -2 2v38a2 2 0 0 0 2 2h54a2 2 0 0 0 2-2v-6h-30a18 18 0 0 1 -18-18z" fill="#57b7eb"/><path d="m39 49h-14l-4 8h22z" fill="#fcbc04"/><path d="m14 57h36a2 2 0 0 1 2 2v2a0 0 0 0 1 0 0h-40a0 0 0 0 1 0 0v-2a2 2 0 0 1 2-2z" fill="#fcbc04"/><path d="m18 57h32a2 2 0 0 1 2 2 0 0 0 0 1 0 0h-32a2 2 0 0 1 -2-2 0 0 0 0 1 0 0z" fill="#f9e109"/><path d="m39 49h-14l-4 8z" fill="#e59730"/><circle cx="12" cy="43" fill="#fcbc04" r="2"/><circle cx="39" cy="28" fill="#f9e109" r="2"/><circle cx="21" cy="33" fill="#f9e109" r="2"/><circle cx="30" cy="41" fill="#f9e109" r="2"/><circle cx="46" cy="35" fill="#f9e109" r="2"/><circle cx="54" cy="25" fill="#f9e109" r="2"/><circle cx="14" cy="17" fill="#c4f236" r="6"/><path d="m13 22.91v-11.82a6 6 0 0 0 0 11.82z" fill="#a1d51c"/><path d="m14 11v6h6a6 6 0 0 0 -6-6z" fill="#f89c8d"/><path d="m44 11h4v4h-4z" fill="#c4f236"/><path d="m48 11h4v4h-4z" fill="#a1d51c"/><path d="m52 11h4v4h-4z" fill="#7ab92d"/><path d="m28 40.73a2.48 2.48 0 0 0 0 .27 2 2 0 0 0 4 0h-1a17.09 17.09 0 0 1 -3-.27z" fill="#fcbc04"/><g fill="#39519d"><path d="m61 40a1 1 0 0 0 -1 1v6a1 1 0 0 1 -1 1h-54a1 1 0 0 1 -1-1v-26a1 1 0 0 0 -2 0v26a3 3 0 0 0 3 3h18.38l-3 6h-6.38a1 1 0 0 0 0 2h36a1 1 0 0 1 1 1v1h-39a1 1 0 0 0 0 2h40a1 1 0 0 0 1-1v-2a3 3 0 0 0 -3-3h-6.38l-3-6h18.38a3 3 0 0 0 3-3v-6a1 1 0 0 0 -1-1zm-19.62 16h-18.76l3-6h12.76z"/><path d="m59 6h-54a3 3 0 0 0 -3 3v8a1 1 0 0 0 2 0v-8a1 1 0 0 1 1-1h54a1 1 0 0 1 1 1v28a1 1 0 0 0 2 0v-28a3 3 0 0 0 -3-3z"/><path d="m21 30a3 3 0 0 0 -3 3 2.84 2.84 0 0 0 .38 1.42l-5.23 5.81a3 3 0 0 0 -1.15-.23 3 3 0 1 0 3 3 2.94 2.94 0 0 0 -.37-1.42l5.22-5.81a3 3 0 0 0 1.15.23 3.06 3.06 0 0 0 1.44-.38l4.78 4.25a3 3 0 0 0 2.78 4.13 1 1 0 0 0 0-2 1 1 0 1 1 1-1 1 1 0 0 0 2 0 3 3 0 0 0 -.57-1.75l5.79-8.37a2.89 2.89 0 0 0 .78.12 3 3 0 0 0 1.29-.3l3 3a3 3 0 1 0 5.24-.29l4.47-5.59a2.93 2.93 0 0 0 1 .18 3 3 0 0 0 0-6 1 1 0 0 0 0 2 1 1 0 1 1 -1 1 1 1 0 0 0 -2 0 3 3 0 0 0 .46 1.58l-4.46 5.6a2.93 2.93 0 0 0 -1-.18 3 3 0 0 0 -1.29.3l-3-3a3 3 0 1 0 -5.71-1.3 3 3 0 0 0 .57 1.75l-5.79 8.37a2.89 2.89 0 0 0 -.78-.12 3.06 3.06 0 0 0 -1.44.38l-4.78-4.25a3 3 0 0 0 -2.78-4.13zm26 5a1 1 0 1 1 -1-1 1 1 0 0 1 1 1zm-8-8a1 1 0 1 1 -1 1 1 1 0 0 1 1-1zm-27 17a1 1 0 1 1 1-1 1 1 0 0 1 -1 1zm8-11a1 1 0 1 1 1 1 1 1 0 0 1 -1-1z"/><path d="m14 10a7 7 0 1 0 7 7 7 7 0 0 0 -7-7zm4.9 6h-3.9v-3.9a5 5 0 0 1 3.9 3.9zm-4.9 6a5 5 0 0 1 -1-9.9v4.9a1 1 0 0 0 1 1h4.9a5 5 0 0 1 -4.9 4z"/><circle cx="25" cy="16" r="1"/><circle cx="29" cy="16" r="1"/><circle cx="33" cy="16" r="1"/><circle cx="37" cy="16" r="1"/><circle cx="25" cy="20" r="1"/><circle cx="29" cy="20" r="1"/><circle cx="33" cy="20" r="1"/><circle cx="37" cy="20" r="1"/><circle cx="41" cy="20" r="1"/><circle cx="45" cy="20" r="1"/><circle cx="25" cy="12" r="1"/><circle cx="29" cy="12" r="1"/><path d="m58 41a1 1 0 0 0 -1-1h-5a1 1 0 0 0 0 2h5a1 1 0 0 0 1-1z"/><path d="m47 44a1 1 0 0 0 0 2h9a1 1 0 0 0 0-2z"/><path d="m56 10h-12a1 1 0 0 0 -1 1v4a1 1 0 0 0 1 1h12a1 1 0 0 0 1-1v-4a1 1 0 0 0 -1-1zm-11 2h2v2h-2zm4 0h2v2h-2zm6 2h-2v-2h2z"/></g></g></svg>