<svg height="512" viewBox="0 0 64 64" width="512" xmlns="http://www.w3.org/2000/svg"><g id="Fill_Outline" data-name="Fill Outline"><rect fill="#aae1f9" height="36" rx="3" width="52" x="3" y="20"/><path d="m52 20h-2.07l-8.56 13.76-.37 6.69 5.59-3.69 8.09-15.14a3 3 0 0 0 -2.68-1.62z" fill="#57b7eb"/><path d="m10 34v-14h-4a3 3 0 0 0 -3 3v30a3 3 0 0 0 3 3h46a3 3 0 0 0 3-3v-3h-29a16 16 0 0 1 -16-16z" fill="#57b7eb"/><path d="m8 29h4v4h-4z" fill="#f9e109"/><path d="m8 37h4v4h-4z" fill="#f89c8d"/><path d="m8 45h4v4h-4z" fill="#a1d51c"/><path d="m18 26h16v14h-16z" fill="#f9e109"/><path d="m18 44h6v6h-6z" fill="#f9e109"/><path d="m28 44h6v6h-6z" fill="#f8664f"/><path d="m38 26h12v24h-12z" fill="#c4f236"/><path d="m8 29h2v4h-2z" fill="#fcbc04"/><path d="m8 41h3.63a16 16 0 0 1 -1.34-4h-2.29z" fill="#f8664f"/><path d="m24 50v-.14a15.8 15.8 0 0 1 -6-2v2.14z" fill="#fcbc04"/><path d="m20 31v-5h-2v14h16v-2h-7a7 7 0 0 1 -7-7z" fill="#fcbc04"/><path d="m24 40h6l-3-6z" fill="#a1d51c"/><path d="m18 40h8l-4-8z" fill="#c4f236"/><path d="m27 38a7.22 7.22 0 0 1 -1.87-.26l-1.13 2.26h6l-1-2z" fill="#7ab92d"/><path d="m20.84 34.32-2.84 5.68h8l-1.17-2.35a7 7 0 0 1 -3.99-3.33z" fill="#a1d51c"/><path d="m40 42v-16h-2v24h12v-2h-4a6 6 0 0 1 -6-6z" fill="#a1d51c"/><path d="m50 26h-3.8l-4.83 7.76-.4 6.69 5.59-3.69 3.44-6.44z" fill="#a1d51c"/><path d="m57.18 7-14.81 23.76-.37 6.69 5.59-3.69 13.17-24.76a2.07 2.07 0 0 0 -.76-2.72 2.06 2.06 0 0 0 -2.82.72z" fill="#57b7eb"/><path d="m60 6.28-.27-.13-10 18.69a26.37 26.37 0 0 1 -7.52 8.74l-.21 3.87 5.59-3.69 13.17-24.76a2.07 2.07 0 0 0 -.76-2.72z" fill="#4891d3"/><g fill="#39519d"><path d="m55 27a1 1 0 0 0 -1 1v25a2 2 0 0 1 -2 2h-46a2 2 0 0 1 -2-2v-30a2 2 0 0 1 2-2h38.07a1 1 0 0 0 0-2h-38.07a4 4 0 0 0 -4 4v30a4 4 0 0 0 4 4h46a4 4 0 0 0 4-4v-25a1 1 0 0 0 -1-1z"/><path d="m13 29a1 1 0 0 0 -1-1h-4a1 1 0 0 0 -1 1v4a1 1 0 0 0 1 1h4a1 1 0 0 0 1-1zm-2 3h-2v-2h2z"/><path d="m13 37a1 1 0 0 0 -1-1h-4a1 1 0 0 0 -1 1v4a1 1 0 0 0 1 1h4a1 1 0 0 0 1-1zm-2 3h-2v-2h2z"/><path d="m8 48a1 1 0 0 0 0 2h4a1 1 0 0 0 1-1v-4a1 1 0 0 0 -1-1h-4a1 1 0 0 0 0 2h3v2z"/><path d="m34 30a1 1 0 0 0 1-1v-3a1 1 0 0 0 -1-1h-16a1 1 0 0 0 -1 1v14a1 1 0 0 0 1 1h16a1 1 0 0 0 1-1v-7a1 1 0 0 0 -2 0v6h-2.38l-2.73-5.45a1 1 0 0 0 -1.78 0l-1.11 2.21-2.11-4.21a1 1 0 0 0 -1.78 0l-2.11 4.21v-8.76h14v2a1 1 0 0 0 1 1zm-7 6.24 1.38 2.76h-1.76l-.5-1zm-5-2 2.38 4.76h-4.76z"/><circle cx="29" cy="30" r="1"/><path d="m18 43a1 1 0 0 0 -1 1v6a1 1 0 0 0 1 1h6a1 1 0 0 0 1-1v-6a1 1 0 0 0 -1-1zm5 6h-4v-4h4z"/><path d="m34 43h-6a1 1 0 0 0 -1 1v6a1 1 0 0 0 1 1h6a1 1 0 0 0 1-1v-6a1 1 0 0 0 -1-1zm-1 6h-4v-4h4z"/><path d="m41.33 27a1 1 0 0 0 0-2h-3.33a1 1 0 0 0 -1 1v24a1 1 0 0 0 1 1h12a1 1 0 0 0 1-1v-13.81a1 1 0 0 0 -2 0v12.81h-10v-22z"/><path d="m42 43h4a1 1 0 0 0 0-2h-4a1 1 0 0 0 0 2z"/><path d="m42 47h4a1 1 0 0 0 0-2h-4a1 1 0 0 0 0 2z"/><path d="m60.47 5.41a3.05 3.05 0 0 0 -4.14 1l-14.81 23.82a1 1 0 0 0 -.15.47l-.37 6.69a1 1 0 0 0 .5.93 1 1 0 0 0 .5.13 1 1 0 0 0 .55-.16l5.59-3.7a1 1 0 0 0 .34-.36l9.42-17.65a1 1 0 0 0 -1.77-.95l-9.33 17.43-3.72 2.46.27-4.45 14.65-23.57a1.06 1.06 0 0 1 1.84 1.07l-1.84 3.53a1 1 0 1 0 1.76.94l1.89-3.53a3.06 3.06 0 0 0 -1.18-4.1z"/></g></g></svg>